<?xml version="1.0" encoding="UTF-8" standalone="no"?>
<svg
   height="16"
   viewBox="0 0 16 16"
   width="16"
   version="1.1"
   id="svg834"
   sodipodi:docname="postać.svg"
   inkscape:version="1.1.2 (b8e25be833, 2022-02-05)"
   xmlns:inkscape="http://www.inkscape.org/namespaces/inkscape"
   xmlns:sodipodi="http://sodipodi.sourceforge.net/DTD/sodipodi-0.dtd"
   xmlns="http://www.w3.org/2000/svg"
   xmlns:svg="http://www.w3.org/2000/svg">
  <defs
     id="defs838" />
  <sodipodi:namedview
     id="namedview836"
     pagecolor="#ffffff"
     bordercolor="#666666"
     borderopacity="1.0"
     inkscape:pageshadow="2"
     inkscape:pageopacity="0.0"
     inkscape:pagecheckerboard="0"
     showgrid="false"
     inkscape:zoom="45.254834"
     inkscape:cx="3.1598834"
     inkscape:cy="4.7729708"
     inkscape:window-width="2560"
     inkscape:window-height="1369"
     inkscape:window-x="-8"
     inkscape:window-y="-8"
     inkscape:window-maximized="1"
     inkscape:current-layer="layer1" />
  <g
     inkscape:groupmode="layer"
     id="layer1"
     inkscape:label="Layer 1"
     style="display:inline">
    <path
       id="path832"
       style="fill:#8da5f3;fill-opacity:1"
       d="M 6 1 A 1 1 0 0 0 5 2 L 5 5 A 1 1 0 0 0 6 6 L 7 6 L 7 7 L 6.875 7 C 6.39025 7 6 7.39025 6 7.875 L 6 10.125 C 6 10.60975 6.39025 11 6.875 11 L 9.125 11 C 9.60975 11 10 10.60975 10 10.125 L 10 7.875 C 10 7.39025 9.60975 7 9.125 7 L 9 7 L 9 6 L 10 6 A 1 1 0 0 0 11 5 L 11 2 A 1 1 0 0 0 10 1 L 6 1 z M 6 3 L 7 3 L 7 5 L 6 5 L 6 3 z M 9 3 L 10 3 L 10 5 L 9 5 L 9 3 z " />
    <rect
       style="display:inline;fill:#8da5f3;fill-opacity:1;stroke:none;stroke-width:0.0106117;stroke-linejoin:round"
       id="rect27253-2"
       width="1"
       height="4.5043302"
       x="6.5"
       y="10.495669"
       ry="0.5" />
    <rect
       style="display:inline;fill:#8da5f3;fill-opacity:1;stroke:none;stroke-width:0.0106117;stroke-linejoin:round"
       id="rect27253-2-3"
       width="1"
       height="4.5043302"
       x="8.5"
       y="10.495669"
       ry="0.5" />
    <path
       id="rect27253-2-3-0"
       style="display:inline;fill:#8da5f3;fill-opacity:1;stroke:none;stroke-width:0.0106117;stroke-linejoin:round"
       d="M 6.984375 7 L 6.984375 8 L 10 8 A 0.57114637 0.56889762 0 0 1 10.5 8.5 L 10.5 11.003906 C 10.5 11.280906 10.723 11.503906 11 11.503906 C 11.277 11.503906 11.5 11.280906 11.5 11.003906 L 11.5 8 A 1.1422927 1.1377952 0 0 0 10.5 7 L 6.984375 7 z " />
    <path
       id="rect27253-2-3-0-5"
       style="display:inline;fill:#8da5f3;fill-opacity:1;stroke:none;stroke-width:0.0106117;stroke-linejoin:round"
       d="M 9.0156245,7 V 8 H 5.9999995 A 0.57114637,0.56889762 0 0 0 5.5,8.5 v 2.503906 c 0,0.277 -0.223,0.5 -0.5,0.5 -0.277,0 -0.5,-0.223 -0.5,-0.5 V 8 a 1.1422927,1.1377952 0 0 1 1,-1 z" />
  </g>
  <g
     inkscape:groupmode="layer"
     id="layer2"
     inkscape:label="Layer 2"
     style="display:inline" />
</svg>
